<?xml version="1.0" encoding="utf-8"?>
<!-- Generator: Adobe Illustrator 17.0.2, SVG Export Plug-In . SVG Version: 6.00 Build 0)  -->
<!DOCTYPE svg PUBLIC "-//W3C//DTD SVG 1.1//EN" "http://www.w3.org/Graphics/SVG/1.1/DTD/svg11.dtd">
<svg version="1.1" id="Layer_1" xmlns="http://www.w3.org/2000/svg" xmlns:xlink="http://www.w3.org/1999/xlink" x="0px" y="0px"
	 width="30px" height="30px" viewBox="0 0 30 30" enable-background="new 0 0 30 30" xml:space="preserve">
<g>
	<path fill="#3F7BBF" d="M7.563,17.105c0,2.138-0.997,2.938-2.002,2.938c-1.004,0-2.001-0.801-2.001-2.938
		c0-2.137,0.997-2.938,2.001-2.938C6.566,14.167,7.563,14.968,7.563,17.105z M5.562,19.001c0.748,0,0.801-1.442,0.801-1.896
		c0-0.506-0.053-1.896-0.801-1.896c-0.748,0-0.8,1.39-0.8,1.896C4.761,17.559,4.814,19.001,5.562,19.001z"/>
	<path fill="#3F7BBF" d="M9.091,16.139v2.092c0,0.212-0.083,0.801,0.271,0.801c0.287,0,0.265-0.378,0.265-0.566l0.007-2.326h1.058
		v2.432c0,0.885-0.416,1.458-1.36,1.458c-1.208,0-1.307-0.906-1.307-1.602v-2.288H9.091z"/>
	<path fill="#3F7BBF" d="M12.619,15.082v1.057h0.438v0.876h-0.438v2.938h-1.065v-2.938h-0.37v-0.876h0.37v-1.057H12.619z"/>
	<path fill="#3F7BBF" d="M13.685,19.953v-5.695h0.854c0.196,0,2.553-0.287,2.553,2.892c0,1.624-0.627,2.803-2.401,2.803H13.685z
		 M15.966,17.144c0-0.726-0.227-1.874-1.156-1.874v3.671C15.716,18.986,15.966,17.854,15.966,17.144z"/>
	<path fill="#3F7BBF" d="M20.386,18.05c0,0.975-0.31,1.979-1.45,1.979s-1.45-1.004-1.45-1.979s0.31-1.986,1.45-1.986
		S20.386,17.075,20.386,18.05z M18.551,18.05c0,0.219,0.015,1.027,0.385,1.027s0.386-0.809,0.386-1.027
		c0-0.22-0.016-1.027-0.386-1.027S18.551,17.83,18.551,18.05z"/>
	<path fill="#3F7BBF" d="M23.68,18.05c0,0.975-0.31,1.979-1.45,1.979s-1.45-1.004-1.45-1.979s0.31-1.986,1.45-1.986
		S23.68,17.075,23.68,18.05z M21.845,18.05c0,0.219,0.015,1.027,0.385,1.027s0.386-0.809,0.386-1.027
		c0-0.22-0.016-1.027-0.386-1.027S21.845,17.83,21.845,18.05z"/>
	<path fill="#3F7BBF" d="M25.206,16.139V16.6h0.016c0.196-0.333,0.453-0.566,0.868-0.604v1.035
		c-0.053-0.008-0.105-0.016-0.166-0.016c-0.71,0-0.718,0.469-0.718,1.035v1.903h-1.064v-3.814H25.206z"/>
</g>
<path fill="#3F7BBF" d="M4.488,13.58L7.034,1.938L8.5,3.632l1.389-1.4l4.707,5.306l0.849-1.474l1.466,1.621l1.543-1.474l7.33,7.811
	C25.784,14.022,19.262,11.075,4.488,13.58z M10.874,9.675L7.853,8.324l1.646-1.056L7.042,4.86l-1.228,7.492
	c0,0,8.867-2.039,17.194,0.074c0,0-4.618-2.555-14.197-1.99"/>
<path fill="#3F7BBF" d="M5.003,25.223c0,0,12.011-1.695,23.359,0.147c0,0-15.548-0.147-26.675,1.769
	C1.688,27.139,3.161,25.592,5.003,25.223z"/>
<path fill="#3F7BBF" d="M17.015,26.378c0,0,10.415-0.59,11.348-0.344c0,0-9.383,0.835-13.903,1.425
	C14.46,27.458,16.13,26.476,17.015,26.378z"/>
<g>
	<path fill="#3F7BBF" d="M11.474,21.296c-0.104-0.091-0.232-0.167-0.374-0.167c-0.159,0-0.26,0.098-0.26,0.257
		c0,0.43,0.786,0.453,0.786,1.16c0,0.464-0.267,0.814-0.751,0.814c-0.146,0-0.326-0.046-0.443-0.132v-0.492
		c0.121,0.083,0.239,0.139,0.391,0.139c0.167,0,0.298-0.111,0.298-0.284c0-0.201-0.159-0.277-0.305-0.381
		c-0.298-0.201-0.481-0.395-0.481-0.776c0-0.412,0.239-0.769,0.683-0.769c0.166,0,0.315,0.045,0.457,0.128V21.296z"/>
	<path fill="#3F7BBF" d="M11.922,23.318v-2.611h0.537c0.111,0,0.887-0.069,0.887,0.772c0,0.488-0.315,0.769-0.793,0.769
		l-0.114-0.007v1.077H11.922z M12.438,21.822c0.25,0.01,0.392-0.083,0.392-0.35c0-0.188-0.073-0.34-0.294-0.34h-0.097V21.822z"/>
	<path fill="#3F7BBF" d="M15.35,22.013c0,0.98-0.458,1.348-0.918,1.348c-0.461,0-0.918-0.367-0.918-1.348s0.458-1.348,0.918-1.348
		C14.892,20.665,15.35,21.032,15.35,22.013z M14.432,22.882c0.343,0,0.367-0.661,0.367-0.869c0-0.232-0.024-0.869-0.367-0.869
		c-0.344,0-0.367,0.637-0.367,0.869C14.064,22.221,14.088,22.882,14.432,22.882z"/>
	<path fill="#3F7BBF" d="M15.62,23.318v-2.611h0.52c0.329,0,0.918,0.034,0.918,0.748c0,0.287-0.114,0.533-0.371,0.675l0.454,1.188
		h-0.544l-0.453-1.205h-0.008v1.205H15.62z M16.136,21.829l0.091,0.003c0.235,0,0.329-0.159,0.329-0.374
		c0-0.187-0.091-0.339-0.351-0.325h-0.069V21.829z"/>
	<path fill="#3F7BBF" d="M18.562,20.707v0.484h-0.408v2.127h-0.517v-2.127h-0.405v-0.484H18.562z"/>
	<path fill="#3F7BBF" d="M19.87,21.296c-0.104-0.091-0.232-0.167-0.375-0.167c-0.159,0-0.26,0.098-0.26,0.257
		c0,0.43,0.787,0.453,0.787,1.16c0,0.464-0.268,0.814-0.752,0.814c-0.146,0-0.325-0.046-0.443-0.132v-0.492
		c0.121,0.083,0.239,0.139,0.392,0.139c0.166,0,0.298-0.111,0.298-0.284c0-0.201-0.159-0.277-0.305-0.381
		c-0.298-0.201-0.481-0.395-0.481-0.776c0-0.412,0.238-0.769,0.682-0.769c0.167,0,0.315,0.045,0.458,0.128V21.296z"/>
</g>
</svg>
