<svg xmlns="http://www.w3.org/2000/svg" width="30" height="30" viewBox="0 0 30 30"><path fill="#DB9F9F" d="M7.097 12.369h16.006s.208 6.419-8.045 8.211c0 0-7.794-1-7.961-8.211z"/><path fill="#139AD1" d="M23.312 12.327c0 4.558-3.695 8.253-8.253 8.253s-8.253-3.695-8.253-8.253 3.695-8.253 8.253-8.253 8.253 3.695 8.253 8.253zm-8.254-7.669c-4.259 0-7.711 3.452-7.711 7.711s3.452 7.711 7.711 7.711 7.711-3.452 7.711-7.711-3.452-7.711-7.711-7.711zM14.018 7.103l1.015 6.186h.028l.834-6.186h2.78l1.098 10.481h-2.127l-.5-7.549h-.027l-.334 2.586-.89 4.963h-1.599l-1.015-5.019-.348-2.335v-.195h-.028l-.305 7.549h-2.224l.917-10.481h2.725z"/><g fill="#139AD1"><path d="M3.025 23.152c-.239-.38-.577-.626-1.076-.626-.57 0-.999.457-.999 1.013s.527.788.957.992l1.013.527c.401.253.605.577.605 1.056 0 .879-.802 1.54-1.66 1.54-.739 0-1.315-.457-1.562-1.14l.296-.134c.225.563.64.957 1.28.957.697 0 1.309-.549 1.309-1.252 0-.599-.612-.852-1.069-1.076l-.957-.507c-.352-.218-.549-.527-.549-.949 0-.788.563-1.344 1.358-1.344.535 0 1.041.288 1.294.745l-.24.198zM5.96 27.584h-.337v-5.304h.936c.415 0 .816.028 1.146.31.324.274.479.675.479 1.09 0 .38-.148.802-.443 1.049-.323.281-.767.337-1.182.337h-.599v2.518zm.613-2.835c.345 0 .654-.042.928-.288.232-.211.345-.485.345-.795 0-.331-.133-.661-.401-.858-.267-.204-.605-.211-.928-.211h-.557v2.152h.613zM15.354 24.932c0 1.491-1.26 2.723-2.751 2.723s-2.75-1.231-2.75-2.723 1.252-2.722 2.75-2.722c1.492 0 2.751 1.23 2.751 2.722zm-5.163 0c0 1.309 1.09 2.406 2.413 2.406 1.315 0 2.413-1.104 2.413-2.406 0-1.308-1.098-2.405-2.413-2.405-1.323-.001-2.413 1.097-2.413 2.405zM20.025 27.584h-.387l-1.73-2.512h-.169v2.512h-.338v-5.304h.662c.429 0 .851.007 1.209.268.38.267.535.688.535 1.139 0 .922-.641 1.4-1.52 1.386l1.738 2.511zm-1.856-2.828c.33 0 .661-.014.928-.246.254-.204.373-.521.373-.837 0-.394-.183-.788-.562-.957-.281-.133-.641-.119-.949-.119h-.219v2.159h.429zM23.104 27.584h-.338v-4.987h-1.372v-.317h3.081v.316h-1.371v4.988zM28.77 23.152c-.239-.38-.576-.626-1.076-.626-.569 0-.999.457-.999 1.013s.528.788.957.992l1.013.527c.401.253.605.577.605 1.056 0 .879-.802 1.54-1.66 1.54-.739 0-1.315-.457-1.562-1.14l.295-.134c.226.563.641.957 1.28.957.696 0 1.309-.549 1.309-1.252 0-.599-.612-.852-1.069-1.076l-.956-.507c-.353-.218-.549-.527-.549-.949 0-.788.562-1.344 1.357-1.344.534 0 1.041.288 1.294.745l-.239.198z"/></g></svg>