<?xml version="1.0" encoding="utf-8"?>
<!-- Generator: Adobe Illustrator 17.0.2, SVG Export Plug-In . SVG Version: 6.00 Build 0)  -->
<!DOCTYPE svg PUBLIC "-//W3C//DTD SVG 1.1//EN" "http://www.w3.org/Graphics/SVG/1.1/DTD/svg11.dtd">
<svg version="1.1" id="Layer_1" xmlns="http://www.w3.org/2000/svg" xmlns:xlink="http://www.w3.org/1999/xlink" x="0px" y="0px"
	 width="30px" height="30px" viewBox="0 0 30 30" enable-background="new 0 0 30 30" xml:space="preserve">
<path fill="#DB9F9F" d="M7.097,12.369h16.006c0,0,0.208,6.419-8.045,8.211C15.058,20.58,7.264,19.58,7.097,12.369z"/>
<path fill="#139AD1" d="M23.312,12.327c0,4.558-3.695,8.253-8.253,8.253s-8.253-3.695-8.253-8.253s3.695-8.253,8.253-8.253
	S23.312,7.769,23.312,12.327z M15.058,4.658c-4.259,0-7.711,3.452-7.711,7.711s3.452,7.711,7.711,7.711s7.711-3.452,7.711-7.711
	S19.317,4.658,15.058,4.658z"/>
<g>
	<path fill="#139AD1" d="M14.018,7.103l1.015,6.186h0.028l0.834-6.186h2.78l1.098,10.481h-2.127l-0.5-7.549h-0.027l-0.334,2.586
		l-0.89,4.963h-1.599l-1.015-5.019l-0.348-2.335v-0.195h-0.028L12.6,17.584h-2.224l0.917-10.481H14.018z"/>
</g>
<g>
	<path fill="#139AD1" d="M3.025,23.152c-0.239-0.38-0.577-0.626-1.076-0.626c-0.57,0-0.999,0.457-0.999,1.013
		s0.527,0.788,0.957,0.992l1.013,0.527c0.401,0.253,0.605,0.577,0.605,1.056c0,0.879-0.802,1.54-1.66,1.54
		c-0.739,0-1.315-0.457-1.562-1.14l0.296-0.134c0.225,0.563,0.64,0.957,1.28,0.957c0.697,0,1.309-0.549,1.309-1.252
		c0-0.599-0.612-0.852-1.069-1.076l-0.957-0.507c-0.352-0.218-0.549-0.527-0.549-0.949c0-0.788,0.563-1.344,1.358-1.344
		c0.535,0,1.041,0.288,1.294,0.745L3.025,23.152z"/>
	<path fill="#139AD1" d="M5.96,27.584H5.623V22.28h0.936c0.415,0,0.816,0.028,1.146,0.31c0.324,0.274,0.479,0.675,0.479,1.09
		c0,0.38-0.148,0.802-0.443,1.049c-0.323,0.281-0.767,0.337-1.182,0.337H5.96V27.584z M6.573,24.749
		c0.345,0,0.654-0.042,0.928-0.288c0.232-0.211,0.345-0.485,0.345-0.795c0-0.331-0.133-0.661-0.401-0.858
		c-0.267-0.204-0.605-0.211-0.928-0.211H5.96v2.152H6.573z"/>
	<path fill="#139AD1" d="M15.354,24.932c0,1.491-1.26,2.723-2.751,2.723s-2.75-1.231-2.75-2.723s1.252-2.722,2.75-2.722
		C14.095,22.21,15.354,23.44,15.354,24.932z M10.191,24.932c0,1.309,1.09,2.406,2.413,2.406c1.315,0,2.413-1.104,2.413-2.406
		c0-1.308-1.098-2.405-2.413-2.405C11.281,22.526,10.191,23.624,10.191,24.932z"/>
	<path fill="#139AD1" d="M20.025,27.584h-0.387l-1.73-2.512h-0.169v2.512h-0.338V22.28h0.662c0.429,0,0.851,0.007,1.209,0.268
		c0.38,0.267,0.535,0.688,0.535,1.139c0,0.922-0.641,1.4-1.52,1.386L20.025,27.584z M18.169,24.756c0.33,0,0.661-0.014,0.928-0.246
		c0.254-0.204,0.373-0.521,0.373-0.837c0-0.394-0.183-0.788-0.562-0.957c-0.281-0.133-0.641-0.119-0.949-0.119h-0.219v2.159H18.169z
		"/>
	<path fill="#139AD1" d="M23.104,27.584h-0.338v-4.987h-1.372V22.28h3.081v0.316h-1.371V27.584z"/>
	<path fill="#139AD1" d="M28.77,23.152c-0.239-0.38-0.576-0.626-1.076-0.626c-0.569,0-0.999,0.457-0.999,1.013
		s0.528,0.788,0.957,0.992l1.013,0.527c0.401,0.253,0.605,0.577,0.605,1.056c0,0.879-0.802,1.54-1.66,1.54
		c-0.739,0-1.315-0.457-1.562-1.14l0.295-0.134c0.226,0.563,0.641,0.957,1.28,0.957c0.696,0,1.309-0.549,1.309-1.252
		c0-0.599-0.612-0.852-1.069-1.076l-0.956-0.507c-0.353-0.218-0.549-0.527-0.549-0.949c0-0.788,0.562-1.344,1.357-1.344
		c0.534,0,1.041,0.288,1.294,0.745L28.77,23.152z"/>
</g>
</svg>
