<?xml version="1.0" encoding="utf-8"?>
<!-- Generator: Adobe Illustrator 17.0.2, SVG Export Plug-In . SVG Version: 6.00 Build 0)  -->
<!DOCTYPE svg PUBLIC "-//W3C//DTD SVG 1.1//EN" "http://www.w3.org/Graphics/SVG/1.1/DTD/svg11.dtd">
<svg version="1.1" id="Layer_1" xmlns="http://www.w3.org/2000/svg" xmlns:xlink="http://www.w3.org/1999/xlink" x="0px" y="0px"
	 width="30px" height="30px" viewBox="0 0 30 30" enable-background="new 0 0 30 30" xml:space="preserve">
<path fill="#DB9F9F" d="M7.097,12.369h16.006c0,0,0.208,6.419-8.045,8.211C15.058,20.58,7.264,19.58,7.097,12.369z"/>
<path fill="#139AD1" d="M23.312,12.327c0,4.558-3.695,8.253-8.253,8.253s-8.253-3.695-8.253-8.253s3.695-8.253,8.253-8.253
	S23.312,7.769,23.312,12.327z M15.058,4.658c-4.259,0-7.711,3.452-7.711,7.711s3.452,7.711,7.711,7.711s7.711-3.452,7.711-7.711
	S19.317,4.658,15.058,4.658z"/>
<text transform="matrix(1 0 0 1 10.0561 17.5836)" fill="#139AD1" font-family="'Futura-CondensedBold'" font-size="13.9004">M</text>
<text transform="matrix(1 0 0 1 -5.006790e-06 27.5843)" fill="#139AD1" font-family="'Futura-Light'" font-size="7.0281" letter-spacing="1">SPORTS</text>
</svg>
